<?xml version="1.0" standalone="no"?>
<!DOCTYPE svg PUBLIC "-//W3C//DTD SVG 20010904//EN"
 "http://www.w3.org/TR/2001/REC-SVG-20010904/DTD/svg10.dtd">
<svg version="1.0" xmlns="http://www.w3.org/2000/svg"
 width="16.000000pt" height="16.000000pt" viewBox="0 0 16.000000 16.000000"
 preserveAspectRatio="xMidYMid meet">
<metadata>
Created by potrace 1.11, written by Peter Selinger 2001-2013
</metadata>
<g transform="translate(0.000000,16.000000) scale(0.001843,-0.001843)"
fill="#000000" stroke="none">
<path d="M4118 7705 c-1 -1 -37 -6 -78 -10 -159 -14 -137 -11 -369 -50 -19 -3
-38 -8 -41 -10 -4 -3 -25 -7 -46 -11 -22 -3 -47 -10 -56 -15 -10 -5 -18 -8
-18 -5 0 3 -15 0 -32 -5 -18 -6 -37 -12 -43 -13 -75 -20 -105 -29 -130 -39
-16 -6 -35 -12 -42 -13 -12 -2 -163 -58 -198 -74 -11 -5 -47 -21 -80 -35 -113
-50 -130 -59 -246 -122 -114 -62 -135 -71 -125 -55 2 4 -1 21 -9 37 -7 17 -20
46 -29 66 -36 82 -149 217 -201 240 -11 5 -36 19 -55 31 -75 45 -170 69 -275
69 -84 0 -130 -9 -205 -38 -91 -37 -131 -63 -239 -162 -14 -12 -57 -51 -95
-85 -37 -33 -89 -80 -115 -103 -25 -24 -50 -43 -54 -43 -5 0 -5 -4 -2 -10 3
-5 1 -10 -4 -10 -6 0 -19 -8 -29 -17 -10 -10 -53 -49 -96 -88 -43 -38 -91 -81
-106 -95 -15 -14 -60 -54 -100 -90 -40 -36 -85 -76 -100 -90 -15 -14 -63 -57
-106 -95 -43 -39 -104 -95 -137 -125 -32 -30 -72 -64 -88 -75 -16 -11 -29 -26
-29 -32 0 -7 -3 -13 -7 -13 -8 0 -41 -28 -118 -98 -23 -20 -76 -68 -120 -107
-172 -154 -225 -223 -266 -347 -33 -101 -34 -263 -1 -358 52 -150 147 -262
294 -344 27 -15 48 -24 48 -20 0 4 6 2 13 -3 52 -41 299 -49 367 -13 8 4 19 8
23 8 31 0 148 69 207 122 42 38 155 138 183 163 26 22 30 17 16 -19 -7 -16
-13 -31 -14 -34 0 -3 -9 -30 -20 -60 -10 -30 -20 -59 -22 -65 -28 -96 -65
-237 -69 -260 -3 -16 -9 -43 -14 -60 -5 -16 -11 -48 -15 -70 -3 -22 -10 -65
-15 -95 -5 -30 -12 -77 -15 -105 -3 -27 -9 -77 -12 -110 -16 -133 -7 -642 12
-715 2 -8 6 -42 10 -75 3 -33 10 -78 15 -100 5 -22 12 -56 15 -75 3 -19 10
-53 16 -75 5 -22 12 -51 15 -65 11 -55 76 -271 94 -315 4 -11 23 -58 40 -105
18 -47 46 -113 61 -148 16 -34 29 -64 29 -67 2 -32 239 -434 295 -502 15 -18
29 -37 40 -55 66 -106 362 -430 486 -533 13 -11 49 -40 79 -65 30 -25 57 -47
60 -50 3 -3 34 -27 70 -53 36 -27 72 -53 80 -60 15 -12 60 -42 95 -64 11 -7
28 -16 38 -19 9 -3 17 -10 17 -14 0 -4 15 -15 33 -24 17 -10 59 -33 92 -52 33
-19 87 -49 120 -65 33 -17 67 -34 75 -39 105 -63 512 -209 682 -244 12 -3 33
-7 46 -10 48 -12 68 -17 102 -22 19 -3 43 -8 53 -10 17 -5 52 -11 122 -19 17
-2 45 -6 64 -9 19 -4 69 -8 112 -10 42 -2 82 -7 87 -10 11 -7 436 0 492 7 19
3 54 7 77 9 24 1 43 5 43 8 0 3 14 5 32 4 18 0 64 5 103 13 38 7 81 14 95 15
14 1 30 4 35 7 6 3 15 6 20 7 13 2 127 27 140 30 15 5 88 24 105 29 8 2 16 4
18 5 1 2 5 3 10 4 37 9 276 94 332 118 115 51 358 173 387 195 18 14 33 23 33
19 0 -3 22 10 50 29 27 19 53 35 58 35 5 0 17 8 28 18 10 9 48 37 84 61 128
88 302 234 427 360 121 121 233 241 225 241 -2 0 4 7 12 16 9 9 29 32 44 52
15 21 32 42 37 48 6 6 17 22 25 34 8 13 25 35 38 50 12 15 22 32 22 38 0 6 3
12 8 14 10 4 69 93 106 159 10 19 24 37 30 41 6 4 7 8 3 8 -5 0 0 12 11 28 20
27 126 235 155 302 8 19 21 51 30 70 8 19 21 53 28 75 8 22 16 42 19 45 3 3
23 61 44 130 21 69 42 136 47 150 5 14 14 48 20 75 6 28 13 59 15 70 7 29 34
164 39 194 31 191 40 315 40 561 0 215 -8 343 -30 475 -28 176 -29 180 -56
289 -11 45 -22 92 -25 106 -7 35 -51 172 -80 254 -14 38 -23 70 -22 72 2 1 24
-16 49 -39 71 -65 133 -119 174 -152 20 -16 42 -35 49 -40 18 -17 117 -63 176
-82 76 -24 229 -24 315 1 6 2 23 7 40 11 87 24 236 145 296 240 24 37 53 106
77 183 6 18 9 83 8 145 -3 87 -8 125 -26 171 -39 101 -104 200 -157 237 -12 8
-59 48 -104 89 -45 41 -92 84 -105 95 -12 11 -55 50 -96 87 -40 36 -82 75 -94
85 -11 10 -56 50 -100 90 -43 39 -88 80 -100 90 -23 20 -170 152 -214 193 -15
14 -60 54 -100 90 -40 36 -85 76 -100 90 -37 34 -159 144 -223 201 -29 26 -65
59 -82 74 -213 193 -232 207 -350 255 -11 5 -33 11 -50 15 -16 4 -39 9 -50 11
-77 18 -235 -2 -330 -42 -90 -37 -235 -161 -235 -200 0 -8 -4 -14 -9 -14 -8 0
-42 -71 -71 -150 -8 -19 -15 -37 -16 -39 -2 -2 -25 10 -52 27 -59 36 -271 139
-362 176 -36 15 -73 31 -82 36 -10 6 -26 10 -36 10 -10 0 -22 4 -27 9 -24 21
-431 138 -520 148 -21 2 -42 6 -46 9 -4 2 -29 7 -56 10 -26 3 -55 7 -63 9 -8
2 -42 7 -75 11 -33 3 -76 8 -95 11 -43 5 -527 13 -532 8z"/>
</g>
</svg>
