<svg xmlns="http://www.w3.org/2000/svg" width="434.3" height="337.3">
  <path fill="#C69C6D" d="M424.6 74.4l-73.2-66c-12-10.8-30.5-10-41.3 2-3.2 4-5.4 8.5-6.5 13.3C278 8.7 248.5 0 217 0c-31.4 0-61 8.7-86 23.7-1.2-4.8-3.4-9.3-7-13.2-10.7-12-29.2-13-41.2-2l-73.2 66c-12 10.8-13 29.3-2 41.3 10.7 12 29.2 13 41.2 2l11-9.8c-7.3 18.8-11.3 39.2-11.3 60.6 0 93 75.6 168.6 168.7 168.6 93 0 168.6-75.6 168.6-168.7 0-21.4-4-41.8-11.3-60.6l11 9.6c12 10.8 30.4 10 41.2-2 11-12 10-30.6-2-41.4z"/>
  <path fill="#88592D" d="M202.5 97.3c14.3-24.8 8.5-60-47.3-47.4-57.6 12.6-87 103.2-56 138 28 34.2 49 5 64-18.7 16.5-24.7 26.6-43.7 39.3-72.2z"/>
  <path fill="#603813" d="M228.7 230.7l16-27.7c6.3-11 1.2-20-11.6-20h-31.6c-12.7 0-18 9-11.5 20l16 27.7c1 1.6 2 3 3 4v102.5h17V234.8c1-1 2-2.4 3-4zM181 119.5c0 10.7-8.6 19.4-19.3 19.4-10.7 0-19.4-9-19.4-19.7S151 100 161.7 100s19.3 9 19.3 19.6zm111 0c0 10.7-8.7 19.4-19.4 19.4s-19.4-9-19.4-19.7S262 100 272.6 100s19.4 9 19.4 19.6z"/>
</svg>
