<?xml version="1.0" encoding="utf-8"?>
<!-- Generator: Adobe Illustrator 16.0.0, SVG Export Plug-In . SVG Version: 6.00 Build 0)  -->
<!DOCTYPE svg PUBLIC "-//W3C//DTD SVG 1.1//EN" "http://www.w3.org/Graphics/SVG/1.1/DTD/svg11.dtd">
<svg version="1.1" id="Layer_1" xmlns="http://www.w3.org/2000/svg" xmlns:xlink="http://www.w3.org/1999/xlink" x="0px" y="0px"
	 width="829px" height="154px" viewBox="0 0 829 154" enable-background="new 0 0 829 154" xml:space="preserve">
<g>
	<g>
		<path fill="#C69C6D" d="M755.4,32.6l-24.4-22c-4-3.6-10.2-3.3-13.8,0.7c-1.1,1.3-1.8,2.8-2.2,4.4c-8.5-5-18.4-7.9-28.9-7.9
			c-10.5,0-20.4,2.9-28.7,7.9c-0.4-1.6-1.1-3.1-2.3-4.4c-3.6-4-9.8-4.3-13.8-0.7l-24.4,22c-4,3.6-4.3,9.8-0.7,13.8
			c3.6,4,9.8,4.3,13.8,0.7l3.7-3.3c-2.4,6.3-3.8,13.1-3.8,20.2c0,31.1,25.2,56.3,56.3,56.3c31.1,0,56.3-25.2,56.3-56.3
			c0-7.1-1.3-14-3.8-20.2l3.7,3.2c4,3.6,10.2,3.3,13.8-0.7C759.8,42.3,759.4,36.1,755.4,32.6L755.4,32.6z"/>
		<path fill="#88592D" d="M681.2,40.3c4.8-8.3,2.8-20-15.8-15.8c-19.2,4.2-29,34.5-18.7,46.1c9.3,11.4,16.4,1.7,21.4-6.2
			C673.6,56,677,49.7,681.2,40.3L681.2,40.3z"/>
		<path fill="#603813" d="M690,84.8l5.3-9.2c2.1-3.7,0.4-6.7-3.9-6.7h-10.6c-4.2,0-6,3-3.8,6.7l5.3,9.2c0.3,0.5,0.7,1,1,1.3v34.2
			h5.7V86.2c0.3-0.3,0.7-0.8,1-1.3L690,84.8z M674.1,47.7c0,3.6-2.9,6.5-6.4,6.5s-6.5-3-6.5-6.6s2.9-6.4,6.5-6.4
			S674.1,44.2,674.1,47.7L674.1,47.7z M711.1,47.7c0,3.6-2.9,6.5-6.5,6.5c-3.6,0-6.5-3-6.5-6.6s2.9-6.4,6.5-6.4
			C708.2,41.2,711.1,44.2,711.1,47.7L711.1,47.7z"/>
	</g>
	<g>
		<path fill="#88592D" d="M74.1,45.5c0.1,1.8,0.2,5.7,0.4,11.6c0.3,5.7,0.6,10.3,0.9,13.6c0.6,6.6,1,11.5,1.3,14.7
			c0.2,3.2,0.3,7.9,0.2,14c-0.1,6-0.6,11.3-1.5,15.9c-3.5,18.1-13.3,29.3-29.4,33.5c-6.1,1.6-12.5,1.6-19.2,0.1
			c-6.7-1.6-12.8-4.2-18.3-7.9c-0.9-0.6-1.5-1.5-1.7-2.6c-0.3-1.2-0.1-2.2,0.6-3.1c0.6-1,1.5-1.6,2.7-1.8c1.1-0.3,2.2,0,3.2,0.7
			c4.6,3,9.6,5.1,15.1,6.5c5.5,1.3,10.6,1.4,15.5,0.1c12.7-3.3,20.4-12.3,23.3-27c0.6-2.9,1-6,1.2-9.3c-3.8,5-8.4,9-13.7,11.9
			c-5.4,3-10.8,4.6-16.4,4.9c-8.8,0.4-16.3-2.3-22.4-8.2C9.8,107.1,6.5,98.5,6,87.2c-0.3-6.5,0.8-12.8,3.5-19
			c2.6-6.1,6.3-11.4,11.1-15.7c4.9-4.5,10.4-7.4,16.5-8.9c6.1-1.4,12.7-0.8,19.8,1.6c3.8,1.5,6.8,3.2,9.1,5.1
			c-0.1-1.6-0.2-3-0.3-4.4c-0.1-1.2,0.2-2.2,1-3.1c0.8-0.8,1.8-1.3,2.9-1.4c1.1-0.1,2.1,0.3,3,1C73.5,43.5,74,44.4,74.1,45.5z
			 M66.8,68.9c-1.3-4.8-2.7-8.1-4.2-10c-1.7-2.2-4.6-4.1-8.7-5.7c-5.4-1.9-10.4-2.3-15-1.3c-4.6,1.1-8.9,3.3-12.8,6.8
			c-3.8,3.5-6.8,7.8-8.9,12.8c-2.1,5-3.1,10.2-2.9,15.4c0.4,9.1,2.8,15.8,7.3,20c4.4,4.2,9.8,6.1,16.1,5.9
			c6.3-0.4,12.3-2.9,18.1-7.4c5.7-4.5,9.7-10.6,11.8-18.1c0.1-0.4,0.3-0.8,0.6-1.2c-0.2-3-0.6-7.8-1.2-14.4
			c-0.1-0.7-0.1-1.4-0.1-2.3C66.8,69.3,66.8,69.1,66.8,68.9z"/>
		<path fill="#88592D" d="M87.1,13.1c0.8,0.8,1.2,1.8,1.2,3s-0.4,2.2-1.2,3c-0.8,0.8-1.8,1.2-3,1.2s-2.2-0.4-3-1.2
			c-0.8-0.8-1.2-1.8-1.2-3s0.4-2.2,1.2-3c0.8-0.8,1.8-1.2,3-1.2S86.3,12.3,87.1,13.1z M106.6,18.1c2.6,1.9,4.5,3.6,5.9,4.9
			c3.2,3.7,3.7,7.5,1.5,11.4c-1.1,2.1-2.7,3.3-4.8,3.6c-1.3,0.2-2.9-0.1-4.8-1c-0.5-0.2-1.2-0.5-2.1-0.9c-0.8-0.4-1.4-0.7-1.6-0.9
			c-1-0.4-1.7-0.5-2.1-0.4c-0.3,0-1,0.3-2.1,0.9c-1.5,0.8-2.6,1.4-3.3,1.6c-1.6,0.7-3.1,0.9-4.4,0.6c-1.8-0.4-3.1-1.5-4-3.3
			c-2.3-4.3-1.2-8.9,3.4-13.7c1.8-1.8,3.8-3.3,6-4.4c2.2-1.1,4.2-1.7,6.2-1.7c0.9,0,1.9,0.4,3,1.1c0.8,0.4,1.6,1,2.5,1.8L106.6,18.1
			z M96.7,5.5c0.8,0.8,1.2,1.8,1.2,3c0,1.2-0.4,2.2-1.2,3c-0.8,0.8-1.8,1.2-3,1.2c-1.2,0-2.2-0.4-3-1.2c-0.8-0.8-1.2-1.8-1.2-3
			c0-1.2,0.4-2.2,1.2-3c0.8-0.8,1.8-1.2,3-1.2C94.9,4.3,95.9,4.7,96.7,5.5z M103.6,46.6c0,3.2,0.1,15.1,0.5,35.5
			c0.3,20.5,0.2,32.4-0.2,35.5c0,1.2-0.4,2.2-1.3,2.9c-0.9,0.8-1.9,1.1-3.1,1.1c-1.2,0-2.2-0.4-2.9-1.3c-0.8-0.8-1.1-1.9-1.1-3.1
			c0.4-3.3,0.5-15.1,0.1-35.4c-0.3-20.3-0.4-32.1-0.4-35.4c0-1.2,0.4-2.2,1.2-3c0.8-0.8,1.8-1.2,3-1.2c1.2,0,2.2,0.4,3,1.2
			C103.2,44.4,103.6,45.4,103.6,46.6z M108.7,6.2c0.8,0.8,1.2,1.8,1.2,3c0,1.2-0.4,2.2-1.2,3c-0.8,0.8-1.8,1.2-3,1.2
			c-1.2,0-2.2-0.4-3-1.2c-0.8-0.8-1.2-1.8-1.2-3c0-1.2,0.4-2.2,1.2-3c0.8-0.8,1.8-1.2,3-1.2C106.9,5,107.9,5.4,108.7,6.2z
			 M117.9,13.1c0.8,0.8,1.2,1.8,1.2,3s-0.4,2.2-1.2,3c-0.8,0.8-1.8,1.2-3,1.2s-2.2-0.4-3-1.2c-0.8-0.8-1.2-1.8-1.2-3s0.4-2.2,1.2-3
			c0.8-0.8,1.8-1.2,3-1.2S117.1,12.3,117.9,13.1z"/>
		<path fill="#88592D" d="M164.5,78.2c-0.3-0.6-0.4-1.2-0.4-1.8c0-0.2-0.1-0.8-0.1-1.9c-0.1-0.5-0.2-0.9-0.3-1.4
			c-1.3-6.6-3.2-11.5-5.8-14.9c-2.5-3.3-5.9-4.8-10-4.5c-3.4,0.2-6.3,1.2-8.6,2.9c-2.4,1.7-5,4.5-8,8.3c-0.3,0.4-0.7,0.7-1,0.9
			c-0.2,17.4,0.3,34.5,1.5,51.3c0.1,1.2-0.2,2.2-1,3.1c-0.8,0.8-1.7,1.3-2.9,1.4c-1.2,0.1-2.2-0.2-3.1-1c-0.9-0.8-1.3-1.7-1.4-2.9
			c-1.6-23.1-1.9-46.6-0.9-70.6c0.1-1.2,0.6-2.2,1.4-2.9c0.8-0.8,1.8-1.1,3-1.1c1.1,0.1,2.1,0.5,2.8,1.4c0.8,0.9,1.1,1.8,1.1,2.9
			c-0.1,1.9-0.1,3.8-0.1,5.7c4.8-4.7,10.4-7.2,16.6-7.6c9.2-0.6,16.1,3.9,20.7,13.5c3.6-4.8,8.3-8.4,14-10.8
			c9-3.9,16.6-3.3,22.8,1.8c3.2,2.7,5.5,7.4,7,14c1.2,5,1.9,11.3,2.1,18.8c0.3,3.3,0.3,9.6,0.1,19c-0.3,9.4-0.4,14.1-0.4,14.2
			c0,1.2-0.4,2.2-1.2,3c-0.8,0.8-1.8,1.2-3,1.2c-1.2,0-2.2-0.4-3-1.2c-0.8-0.8-1.2-1.8-1.2-3c0-0.2,0.1-4.4,0.3-12.7
			c0.2-8.3,0.2-14.9,0-20c-0.2-7.1-0.8-12.8-1.8-17.3c-1.1-4.8-2.6-7.9-4.4-9.3c-3.6-3-8.3-3.2-14.1-0.8c-2.7,1.2-5.2,2.8-7.4,4.8
			c-2.3,2-3.9,4-4.9,6c-0.6,1.3-0.8,3.7-0.6,7.2c0.4,2,0.7,4.2,0.9,6.4l0.6,6.3c0.1,1.9,0.2,4.1,0.2,6.6c0,2.5,0.1,4.4,0.1,5.7v5.4
			v4.1c0,1.2-0.4,2.2-1.2,3c-0.8,0.8-1.8,1.2-3,1.2c-1.2,0-2.2-0.4-3-1.2c-0.8-0.8-1.2-1.8-1.2-3C165.7,94,165.3,84,164.5,78.2z"/>
		<path fill="#88592D" d="M259.9,78.2c-0.3-0.6-0.4-1.2-0.4-1.8c0-0.2-0.1-0.8-0.1-1.9c-0.1-0.5-0.2-0.9-0.3-1.4
			c-1.3-6.6-3.2-11.5-5.8-14.9c-2.5-3.3-5.9-4.8-10-4.5c-3.4,0.2-6.3,1.2-8.6,2.9c-2.4,1.7-5,4.5-8,8.3c-0.3,0.4-0.7,0.7-1,0.9
			c-0.2,17.4,0.3,34.5,1.5,51.3c0.1,1.2-0.2,2.2-1,3.1c-0.8,0.8-1.7,1.3-2.9,1.4c-1.2,0.1-2.2-0.2-3.1-1c-0.9-0.8-1.3-1.7-1.4-2.9
			c-1.6-23.1-1.9-46.6-0.9-70.6c0.1-1.2,0.6-2.2,1.4-2.9c0.8-0.8,1.8-1.1,3-1.1c1.1,0.1,2.1,0.5,2.8,1.4c0.8,0.9,1.1,1.8,1.1,2.9
			c-0.1,1.9-0.1,3.8-0.1,5.7c4.8-4.7,10.4-7.2,16.6-7.6c9.2-0.6,16.1,3.9,20.7,13.5c3.6-4.8,8.3-8.4,14-10.8
			c9-3.9,16.6-3.3,22.8,1.8c3.2,2.7,5.5,7.4,7,14c1.2,5,1.9,11.3,2.1,18.8c0.3,3.3,0.3,9.6,0.1,19c-0.3,9.4-0.4,14.1-0.4,14.2
			c0,1.2-0.4,2.2-1.2,3c-0.8,0.8-1.8,1.2-3,1.2c-1.2,0-2.2-0.4-3-1.2c-0.8-0.8-1.2-1.8-1.2-3c0-0.2,0.1-4.4,0.3-12.7
			c0.2-8.3,0.2-14.9,0-20c-0.2-7.1-0.8-12.8-1.8-17.3c-1.1-4.8-2.6-7.9-4.4-9.3c-3.6-3-8.3-3.2-14.1-0.8c-2.7,1.2-5.2,2.8-7.4,4.8
			c-2.3,2-3.9,4-4.9,6c-0.6,1.3-0.8,3.7-0.6,7.2c0.4,2,0.7,4.2,0.9,6.4l0.6,6.3c0.1,1.9,0.2,4.1,0.2,6.6c0,2.5,0.1,4.4,0.1,5.7v5.4
			v4.1c0,1.2-0.4,2.2-1.2,3c-0.8,0.8-1.8,1.2-3,1.2c-1.2,0-2.2-0.4-3-1.2c-0.8-0.8-1.2-1.8-1.2-3C261.1,94,260.7,84,259.9,78.2z"/>
		<path fill="#88592D" d="M321.7,81.5c-0.2,7.1,1.4,13.1,4.9,18.1c3.4,4.9,7.9,8.5,13.4,10.7c4.8,1.7,9.4,2.4,13.9,2.1
			c4.4-0.3,8.4-1.9,11.9-4.7c3.5-2.9,5.8-6.7,6.9-11.5c0.2-1.2,0.8-2.1,1.8-2.7c1-0.6,2.1-0.8,3.2-0.5c1.1,0.3,2,0.9,2.6,1.9
			c0.6,1,0.8,2.1,0.5,3.1c-1.2,5.2-3.4,9.6-6.6,13.2c-3.2,3.6-6.9,6.1-11,7.6c-4.1,1.5-8.5,2.1-13,2c-4.5-0.1-8.9-1-13.2-2.7
			c-6.1-2.5-11.2-6.1-15.3-11c-4-4.9-6.7-11-8-18.4c-1.3-7.4-0.2-15.8,3.3-25.1c1.7-4.8,4.4-8.9,8.1-12.4c3.7-3.5,7.8-6,12.2-7.5
			c4.4-1.5,9.2-1.9,14.2-1.2c5,0.7,9.7,2.7,14,6c1.7,1.2,3.5,3,5.4,5.5c1.9,2.5,3.5,5,4.8,7.6c3.8,8.1,3,14.3-2.4,18.6
			c-1.1,0.9-2.8,1.6-5.1,2c-1.6,0.4-3.7,0.7-6.1,0.8c-4.2,0.3-9.5,0.4-15.9,0.1C336.5,82.8,328.3,82.3,321.7,81.5z M322.9,73.3
			c6.4,0.7,14.3,1.2,23.6,1.4c6.2,0.2,11.3,0.1,15.1-0.1c2.2-0.1,3.9-0.3,5.3-0.6l1.5-0.3c1.8-1.5,1.8-4.3-0.1-8.4
			c-1-2.1-2.3-4.1-3.8-5.9c-1.5-1.8-2.8-3.2-3.9-4.1c-4.4-3-8.9-4.5-13.6-4.5c-4.6,0-9.1,1.5-13.2,4.4c-4.2,2.9-7.1,6.8-8.9,11.7
			C324.1,68.9,323.4,71.1,322.9,73.3z"/>
		<path fill="#88592D" d="M431.5,57.4c2.4-4.6,6.2-8.3,11.3-11c5.1-2.7,10.5-4.3,16.4-4.8c6-0.4,11.7,0.4,17,2.5
			c5.3,2.1,9.4,5.5,12.1,10.3c3.9,6.7,6,17.3,6.5,31.8c0,4.2-0.1,9.9-0.2,17.2c-0.2,7.3-0.2,12.1-0.2,14.5c0,1.1-0.4,2.1-1.2,2.9
			c-0.8,0.8-1.8,1.3-2.9,1.3c-1.2,0-2.2-0.4-3-1.2c-0.9-0.8-1.3-1.8-1.3-3v-7.4c-3.8,3-8.2,5.4-13.3,7.2c-5.1,1.8-10,2.9-14.9,3.2
			c-8.1,0.5-14.8-1.1-20-4.7c-6.2-4.2-9.3-10.6-9.2-19.2c0.1-7.3,2.8-13.7,8.1-19.4c5.3-5.6,11.6-9.6,19-12
			c4.5-1.6,9.4-2.3,14.7-2.1c5.3,0.2,9.9,1.5,14,3.9c-0.9-3.6-2-6.5-3.3-8.8c-1.8-3-4.6-5.3-8.4-6.8c-3.8-1.5-8.1-2.1-12.9-1.8
			c-4.6,0.4-8.8,1.6-12.6,3.6c-3.8,2-6.5,4.6-8.1,7.6c-0.5,1-1.3,1.7-2.5,2c-1.2,0.4-2.2,0.3-3.2-0.2c-1-0.5-1.7-1.3-2-2.5
			C431,59.5,431,58.4,431.5,57.4z M486,81.4c-2.2-4.5-5.9-7.4-11.1-8.7c-5.1-1.4-10.7-1.1-16.7,0.9c-6.1,2-11.2,5.2-15.1,9.4
			c-4,4.3-6.1,9-6.2,14c-0.1,5.6,1.7,9.7,5.5,12.3c3.6,2.5,8.4,3.6,14.5,3.1c6.1-0.3,11.9-1.8,17.5-4.6c5.5-2.8,9.4-6.1,11.6-9.9
			c0.1-4.4,0.1-8.2,0.1-11.4l-0.3-5V81.4z"/>
		<path fill="#88592D" d="M611.1,17.9c0.4,5.1,0.5,11.8,0.5,20.1c-0.1,11.6-0.2,18.1-0.2,19.6c0.4,14.9,0.6,34.9,0.6,59.9
			c0,1.2-0.4,2.2-1.2,3c-0.8,0.8-1.8,1.2-3,1.2s-2.2-0.4-3-1.2c-0.8-0.8-1.2-1.8-1.2-3v-13.9c-3.7,4.8-8.1,8.6-13.3,11.4
			c-5.2,2.8-10.4,4.5-15.7,4.9c-8.3,0.6-15.2-1.6-20.7-6.6c-6-5.5-9.1-13.5-9.3-24c-0.2-9.9,2.3-18.7,7.5-26.4
			c5.2-7.7,11.7-13.1,19.5-16.2c8-3.3,15.6-3.5,22.8-0.5c3.1,1.3,5.9,3.2,8.6,5.7c0-1.1,0-5.8,0.1-14.1c0.1-8-0.1-14.4-0.5-19.4
			c-0.1-1.1,0.2-2.1,1-3s1.7-1.4,2.8-1.5c1.1-0.1,2.2,0.2,3.1,1S611,16.7,611.1,17.9z M603.3,68.5c-2.6-7.3-6.7-12.1-12.2-14.4
			c-5-2.1-10.5-2-16.3,0.4c-6.2,2.5-11.4,6.9-15.6,13.1c-4.2,6.3-6.3,13.5-6.1,21.7c0.1,8,2.3,13.9,6.6,17.8
			c3.7,3.3,8.4,4.8,14.3,4.4c6.1-0.5,11.9-2.9,17.4-7.4c5.5-4.4,9.3-10,11.5-16.9c0.2-0.5,0.4-0.9,0.6-1.2
			C603.4,79.8,603.4,74,603.3,68.5z"/>
		<path fill="#88592D" d="M818.5,45.5c0.1,1.8,0.2,5.7,0.5,11.6c0.3,5.7,0.6,10.3,0.9,13.6c0.6,6.6,1,11.5,1.3,14.7
			c0.2,3.2,0.3,7.9,0.2,14c-0.1,6-0.6,11.3-1.5,15.9c-3.5,18.1-13.3,29.3-29.4,33.5c-6.1,1.6-12.5,1.6-19.2,0.1
			c-6.7-1.6-12.8-4.2-18.3-7.9c-0.9-0.6-1.5-1.5-1.7-2.6c-0.3-1.2-0.1-2.2,0.6-3.1c0.6-1,1.5-1.6,2.7-1.8c1.1-0.3,2.2,0,3.2,0.7
			c4.6,3,9.6,5.1,15.2,6.5c5.5,1.3,10.7,1.4,15.5,0.1c12.7-3.3,20.4-12.3,23.3-27c0.6-2.9,1-6,1.2-9.3c-3.8,5-8.4,9-13.7,11.9
			c-5.4,3-10.8,4.6-16.4,4.9c-8.8,0.4-16.3-2.3-22.3-8.2c-6.1-5.9-9.4-14.4-9.9-25.7c-0.3-6.5,0.8-12.8,3.5-19
			c2.6-6.1,6.3-11.4,11.1-15.7c4.9-4.5,10.4-7.4,16.5-8.9c6.1-1.4,12.7-0.8,19.8,1.6c3.8,1.5,6.8,3.2,9.2,5.1
			c-0.1-1.6-0.2-3-0.3-4.4c-0.1-1.2,0.2-2.2,1-3.1c0.8-0.8,1.8-1.3,2.9-1.4c1.1-0.1,2.1,0.3,3,1C818,43.5,818.4,44.4,818.5,45.5z
			 M811.2,68.9c-1.3-4.8-2.7-8.1-4.2-10c-1.7-2.2-4.6-4.1-8.7-5.7c-5.4-1.9-10.4-2.3-15-1.3c-4.6,1.1-8.8,3.3-12.8,6.8
			c-3.8,3.5-6.8,7.8-8.8,12.8c-2.1,5-3.1,10.2-2.8,15.4c0.4,9.1,2.8,15.8,7.3,20c4.4,4.2,9.8,6.1,16.1,5.9
			c6.3-0.4,12.3-2.9,18.1-7.4c5.7-4.5,9.7-10.6,11.8-18.1c0.1-0.4,0.3-0.8,0.6-1.2c-0.2-3-0.6-7.8-1.2-14.4
			c-0.1-0.7-0.1-1.4-0.1-2.3C811.2,69.3,811.2,69.1,811.2,68.9z"/>
	</g>
</g>
<g>
</g>
<g>
</g>
<g>
</g>
<g>
</g>
<g>
</g>
<g>
</g>
<g>
</g>
<g>
</g>
<g>
</g>
<g>
</g>
<g>
</g>
<g>
</g>
<g>
</g>
<g>
</g>
<g>
</g>
</svg>
