<svg xmlns="http://www.w3.org/2000/svg" viewBox="0 0 829 154"><path fill="#C69C6D" d="M755.4 32.6l-24.4-22c-4-3.6-10.2-3.3-13.8.7-1.1 1.3-1.8 2.8-2.2 4.4-8.5-5-18.4-7.9-28.9-7.9s-20.4 2.9-28.7 7.9c-.4-1.6-1.1-3.1-2.3-4.4-3.6-4-9.8-4.3-13.8-.7l-24.4 22c-4 3.6-4.3 9.8-.7 13.8 3.6 4 9.8 4.3 13.8.7l3.7-3.3c-2.4 6.3-3.8 13.1-3.8 20.2 0 31.1 25.2 56.3 56.3 56.3 31.1 0 56.3-25.2 56.3-56.3 0-7.1-1.3-14-3.8-20.2l3.7 3.2c4 3.6 10.2 3.3 13.8-.7 3.6-4 3.2-10.2-.8-13.7z"/><path fill="#88592D" d="M681.2 40.3c4.8-8.3 2.8-20-15.8-15.8-19.2 4.2-29 34.5-18.7 46.1 9.3 11.4 16.4 1.7 21.4-6.2 5.5-8.4 8.9-14.7 13.1-24.1z"/><path fill="#603813" d="M690 84.8l5.3-9.2c2.1-3.7.4-6.7-3.9-6.7h-10.6c-4.2 0-6 3-3.8 6.7l5.3 9.2c.3.5.7 1 1 1.3v34.2h5.7V86.2c.3-.3.7-.8 1-1.3v-.1zm-15.9-37.1c0 3.6-2.9 6.5-6.4 6.5s-6.5-3-6.5-6.6 2.9-6.4 6.5-6.4 6.4 3 6.4 6.5zm37 0c0 3.6-2.9 6.5-6.5 6.5s-6.5-3-6.5-6.6 2.9-6.4 6.5-6.4 6.5 3 6.5 6.5z"/><path fill="#88592D" d="M74.1 45.5c.1 1.8.2 5.7.4 11.6.3 5.7.6 10.3.9 13.6.6 6.6 1 11.5 1.3 14.7.2 3.2.3 7.9.2 14-.1 6-.6 11.3-1.5 15.9-3.5 18.1-13.3 29.3-29.4 33.5-6.1 1.6-12.5 1.6-19.2.1-6.7-1.6-12.8-4.2-18.3-7.9-.9-.6-1.5-1.5-1.7-2.6-.3-1.2-.1-2.2.6-3.1.6-1 1.5-1.6 2.7-1.8 1.1-.3 2.2 0 3.2.7 4.6 3 9.6 5.1 15.1 6.5 5.5 1.3 10.6 1.4 15.5.1 12.7-3.3 20.4-12.3 23.3-27 .6-2.9 1-6 1.2-9.3-3.8 5-8.4 9-13.7 11.9-5.4 3-10.8 4.6-16.4 4.9-8.8.4-16.3-2.3-22.4-8.2-6.1-6-9.4-14.6-9.9-25.9-.3-6.5.8-12.8 3.5-19 2.6-6.1 6.3-11.4 11.1-15.7 4.9-4.5 10.4-7.4 16.5-8.9 6.1-1.4 12.7-.8 19.8 1.6 3.8 1.5 6.8 3.2 9.1 5.1l-.3-4.4c-.1-1.2.2-2.2 1-3.1.8-.8 1.8-1.3 2.9-1.4 1.1-.1 2.1.3 3 1 .9 1.1 1.4 2 1.5 3.1zm-7.3 23.4c-1.3-4.8-2.7-8.1-4.2-10-1.7-2.2-4.6-4.1-8.7-5.7-5.4-1.9-10.4-2.3-15-1.3-4.6 1.1-8.9 3.3-12.8 6.8-3.8 3.5-6.8 7.8-8.9 12.8-2.1 5-3.1 10.2-2.9 15.4.4 9.1 2.8 15.8 7.3 20 4.4 4.2 9.8 6.1 16.1 5.9 6.3-.4 12.3-2.9 18.1-7.4 5.7-4.5 9.7-10.6 11.8-18.1.1-.4.3-.8.6-1.2-.2-3-.6-7.8-1.2-14.4-.1-.7-.1-1.4-.1-2.3-.1-.1-.1-.3-.1-.5zm20.3-55.8c.8.8 1.2 1.8 1.2 3s-.4 2.2-1.2 3c-.8.8-1.8 1.2-3 1.2s-2.2-.4-3-1.2c-.8-.8-1.2-1.8-1.2-3s.4-2.2 1.2-3c.8-.8 1.8-1.2 3-1.2s2.2.4 3 1.2zm19.5 5c2.6 1.9 4.5 3.6 5.9 4.9 3.2 3.7 3.7 7.5 1.5 11.4-1.1 2.1-2.7 3.3-4.8 3.6-1.3.2-2.9-.1-4.8-1-.5-.2-1.2-.5-2.1-.9-.8-.4-1.4-.7-1.6-.9-1-.4-1.7-.5-2.1-.4-.3 0-1 .3-2.1.9-1.5.8-2.6 1.4-3.3 1.6-1.6.7-3.1.9-4.4.6-1.8-.4-3.1-1.5-4-3.3-2.3-4.3-1.2-8.9 3.4-13.7 1.8-1.8 3.8-3.3 6-4.4 2.2-1.1 4.2-1.7 6.2-1.7.9 0 1.9.4 3 1.1.8.4 1.6 1 2.5 1.8l.7.4zM96.7 5.5c.8.8 1.2 1.8 1.2 3s-.4 2.2-1.2 3c-.8.8-1.8 1.2-3 1.2s-2.2-.4-3-1.2c-.8-.8-1.2-1.8-1.2-3s.4-2.2 1.2-3c.8-.8 1.8-1.2 3-1.2s2.2.4 3 1.2zm6.9 41.1c0 3.2.1 15.1.5 35.5.3 20.5.2 32.4-.2 35.5 0 1.2-.4 2.2-1.3 2.9-.9.8-1.9 1.1-3.1 1.1-1.2 0-2.2-.4-2.9-1.3-.8-.8-1.1-1.9-1.1-3.1.4-3.3.5-15.1.1-35.4-.3-20.3-.4-32.1-.4-35.4 0-1.2.4-2.2 1.2-3 .8-.8 1.8-1.2 3-1.2s2.2.4 3 1.2c.8 1 1.2 2 1.2 3.2zm5.1-40.4c.8.8 1.2 1.8 1.2 3s-.4 2.2-1.2 3c-.8.8-1.8 1.2-3 1.2s-2.2-.4-3-1.2c-.8-.8-1.2-1.8-1.2-3s.4-2.2 1.2-3c.8-.8 1.8-1.2 3-1.2s2.2.4 3 1.2zm9.2 6.9c.8.8 1.2 1.8 1.2 3s-.4 2.2-1.2 3c-.8.8-1.8 1.2-3 1.2s-2.2-.4-3-1.2c-.8-.8-1.2-1.8-1.2-3s.4-2.2 1.2-3c.8-.8 1.8-1.2 3-1.2s2.2.4 3 1.2zm46.6 65.1c-.3-.6-.4-1.2-.4-1.8 0-.2-.1-.8-.1-1.9l-.3-1.4c-1.3-6.6-3.2-11.5-5.8-14.9-2.5-3.3-5.9-4.8-10-4.5-3.4.2-6.3 1.2-8.6 2.9-2.4 1.7-5 4.5-8 8.3-.3.4-.7.7-1 .9-.2 17.4.3 34.5 1.5 51.3.1 1.2-.2 2.2-1 3.1-.8.8-1.7 1.3-2.9 1.4-1.2.1-2.2-.2-3.1-1-.9-.8-1.3-1.7-1.4-2.9-1.6-23.1-1.9-46.6-.9-70.6.1-1.2.6-2.2 1.4-2.9.8-.8 1.8-1.1 3-1.1 1.1.1 2.1.5 2.8 1.4.8.9 1.1 1.8 1.1 2.9-.1 1.9-.1 3.8-.1 5.7 4.8-4.7 10.4-7.2 16.6-7.6 9.2-.6 16.1 3.9 20.7 13.5 3.6-4.8 8.3-8.4 14-10.8 9-3.9 16.6-3.3 22.8 1.8 3.2 2.7 5.5 7.4 7 14 1.2 5 1.9 11.3 2.1 18.8.3 3.3.3 9.6.1 19-.3 9.4-.4 14.1-.4 14.2 0 1.2-.4 2.2-1.2 3-.8.8-1.8 1.2-3 1.2s-2.2-.4-3-1.2c-.8-.8-1.2-1.8-1.2-3l.3-12.7c.2-8.3.2-14.9 0-20-.2-7.1-.8-12.8-1.8-17.3-1.1-4.8-2.6-7.9-4.4-9.3-3.6-3-8.3-3.2-14.1-.8-2.7 1.2-5.2 2.8-7.4 4.8-2.3 2-3.9 4-4.9 6-.6 1.3-.8 3.7-.6 7.2.4 2 .7 4.2.9 6.4l.6 6.3c.1 1.9.2 4.1.2 6.6s.1 4.4.1 5.7v9.5c0 1.2-.4 2.2-1.2 3-.8.8-1.8 1.2-3 1.2s-2.2-.4-3-1.2c-.8-.8-1.2-1.8-1.2-3 0-14.4-.4-24.4-1.2-30.2zm95.4 0c-.3-.6-.4-1.2-.4-1.8 0-.2-.1-.8-.1-1.9l-.3-1.4c-1.3-6.6-3.2-11.5-5.8-14.9-2.5-3.3-5.9-4.8-10-4.5-3.4.2-6.3 1.2-8.6 2.9-2.4 1.7-5 4.5-8 8.3-.3.4-.7.7-1 .9-.2 17.4.3 34.5 1.5 51.3.1 1.2-.2 2.2-1 3.1-.8.8-1.7 1.3-2.9 1.4-1.2.1-2.2-.2-3.1-1-.9-.8-1.3-1.7-1.4-2.9-1.6-23.1-1.9-46.6-.9-70.6.1-1.2.6-2.2 1.4-2.9.8-.8 1.8-1.1 3-1.1 1.1.1 2.1.5 2.8 1.4.8.9 1.1 1.8 1.1 2.9-.1 1.9-.1 3.8-.1 5.7 4.8-4.7 10.4-7.2 16.6-7.6 9.2-.6 16.1 3.9 20.7 13.5 3.6-4.8 8.3-8.4 14-10.8 9-3.9 16.6-3.3 22.8 1.8 3.2 2.7 5.5 7.4 7 14 1.2 5 1.9 11.3 2.1 18.8.3 3.3.3 9.6.1 19-.3 9.4-.4 14.1-.4 14.2 0 1.2-.4 2.2-1.2 3-.8.8-1.8 1.2-3 1.2s-2.2-.4-3-1.2c-.8-.8-1.2-1.8-1.2-3l.3-12.7c.2-8.3.2-14.9 0-20-.2-7.1-.8-12.8-1.8-17.3-1.1-4.8-2.6-7.9-4.4-9.3-3.6-3-8.3-3.2-14.1-.8-2.7 1.2-5.2 2.8-7.4 4.8-2.3 2-3.9 4-4.9 6-.6 1.3-.8 3.7-.6 7.2.4 2 .7 4.2.9 6.4l.6 6.3c.1 1.9.2 4.1.2 6.6s.1 4.4.1 5.7v9.5c0 1.2-.4 2.2-1.2 3-.8.8-1.8 1.2-3 1.2s-2.2-.4-3-1.2c-.8-.8-1.2-1.8-1.2-3 0-14.4-.4-24.4-1.2-30.2zm61.8 3.3c-.2 7.1 1.4 13.1 4.9 18.1 3.4 4.9 7.9 8.5 13.4 10.7 4.8 1.7 9.4 2.4 13.9 2.1 4.4-.3 8.4-1.9 11.9-4.7 3.5-2.9 5.8-6.7 6.9-11.5.2-1.2.8-2.1 1.8-2.7 1-.6 2.1-.8 3.2-.5 1.1.3 2 .9 2.6 1.9.6 1 .8 2.1.5 3.1-1.2 5.2-3.4 9.6-6.6 13.2-3.2 3.6-6.9 6.1-11 7.6s-8.5 2.1-13 2c-4.5-.1-8.9-1-13.2-2.7-6.1-2.5-11.2-6.1-15.3-11-4-4.9-6.7-11-8-18.4-1.3-7.4-.2-15.8 3.3-25.1 1.7-4.8 4.4-8.9 8.1-12.4 3.7-3.5 7.8-6 12.2-7.5 4.4-1.5 9.2-1.9 14.2-1.2s9.7 2.7 14 6c1.7 1.2 3.5 3 5.4 5.5 1.9 2.5 3.5 5 4.8 7.6 3.8 8.1 3 14.3-2.4 18.6-1.1.9-2.8 1.6-5.1 2-1.6.4-3.7.7-6.1.8-4.2.3-9.5.4-15.9.1-9.7-.3-17.9-.8-24.5-1.6zm1.2-8.2c6.4.7 14.3 1.2 23.6 1.4 6.2.2 11.3.1 15.1-.1 2.2-.1 3.9-.3 5.3-.6l1.5-.3c1.8-1.5 1.8-4.3-.1-8.4-1-2.1-2.3-4.1-3.8-5.9-1.5-1.8-2.8-3.2-3.9-4.1-4.4-3-8.9-4.5-13.6-4.5-4.6 0-9.1 1.5-13.2 4.4-4.2 2.9-7.1 6.8-8.9 11.7-.8 2-1.5 4.2-2 6.4zm108.6-15.9c2.4-4.6 6.2-8.3 11.3-11 5.1-2.7 10.5-4.3 16.4-4.8 6-.4 11.7.4 17 2.5 5.3 2.1 9.4 5.5 12.1 10.3 3.9 6.7 6 17.3 6.5 31.8 0 4.2-.1 9.9-.2 17.2-.2 7.3-.2 12.1-.2 14.5 0 1.1-.4 2.1-1.2 2.9-.8.8-1.8 1.3-2.9 1.3-1.2 0-2.2-.4-3-1.2-.9-.8-1.3-1.8-1.3-3v-7.4c-3.8 3-8.2 5.4-13.3 7.2-5.1 1.8-10 2.9-14.9 3.2-8.1.5-14.8-1.1-20-4.7-6.2-4.2-9.3-10.6-9.2-19.2.1-7.3 2.8-13.7 8.1-19.4 5.3-5.6 11.6-9.6 19-12 4.5-1.6 9.4-2.3 14.7-2.1 5.3.2 9.9 1.5 14 3.9-.9-3.6-2-6.5-3.3-8.8-1.8-3-4.6-5.3-8.4-6.8-3.8-1.5-8.1-2.1-12.9-1.8-4.6.4-8.8 1.6-12.6 3.6-3.8 2-6.5 4.6-8.1 7.6-.5 1-1.3 1.7-2.5 2-1.2.4-2.2.3-3.2-.2s-1.7-1.3-2-2.5c-.4-1-.4-2.1.1-3.1zm54.5 24c-2.2-4.5-5.9-7.4-11.1-8.7-5.1-1.4-10.7-1.1-16.7.9-6.1 2-11.2 5.2-15.1 9.4-4 4.3-6.1 9-6.2 14-.1 5.6 1.7 9.7 5.5 12.3 3.6 2.5 8.4 3.6 14.5 3.1 6.1-.3 11.9-1.8 17.5-4.6 5.5-2.8 9.4-6.1 11.6-9.9.1-4.4.1-8.2.1-11.4l-.3-5v-.1zm125.1-63.5c.4 5.1.5 11.8.5 20.1-.1 11.6-.2 18.1-.2 19.6.4 14.9.6 34.9.6 59.9 0 1.2-.4 2.2-1.2 3-.8.8-1.8 1.2-3 1.2s-2.2-.4-3-1.2c-.8-.8-1.2-1.8-1.2-3v-13.9c-3.7 4.8-8.1 8.6-13.3 11.4-5.2 2.8-10.4 4.5-15.7 4.9-8.3.6-15.2-1.6-20.7-6.6-6-5.5-9.1-13.5-9.3-24-.2-9.9 2.3-18.7 7.5-26.4 5.2-7.7 11.7-13.1 19.5-16.2 8-3.3 15.6-3.5 22.8-.5 3.1 1.3 5.9 3.2 8.6 5.7 0-1.1 0-5.8.1-14.1.1-8-.1-14.4-.5-19.4-.1-1.1.2-2.1 1-3s1.7-1.4 2.8-1.5c1.1-.1 2.2.2 3.1 1s1.5 1.8 1.6 3zm-7.8 50.6c-2.6-7.3-6.7-12.1-12.2-14.4-5-2.1-10.5-2-16.3.4-6.2 2.5-11.4 6.9-15.6 13.1-4.2 6.3-6.3 13.5-6.1 21.7.1 8 2.3 13.9 6.6 17.8 3.7 3.3 8.4 4.8 14.3 4.4 6.1-.5 11.9-2.9 17.4-7.4 5.5-4.4 9.3-10 11.5-16.9.2-.5.4-.9.6-1.2-.1-6.2-.1-12-.2-17.5zm215.2-23c.1 1.8.2 5.7.5 11.6.3 5.7.6 10.3.9 13.6.6 6.6 1 11.5 1.3 14.7.2 3.2.3 7.9.2 14-.1 6-.6 11.3-1.5 15.9-3.5 18.1-13.3 29.3-29.4 33.5-6.1 1.6-12.5 1.6-19.2.1-6.7-1.6-12.8-4.2-18.3-7.9-.9-.6-1.5-1.5-1.7-2.6-.3-1.2-.1-2.2.6-3.1.6-1 1.5-1.6 2.7-1.8 1.1-.3 2.2 0 3.2.7 4.6 3 9.6 5.1 15.2 6.5 5.5 1.3 10.7 1.4 15.5.1 12.7-3.3 20.4-12.3 23.3-27 .6-2.9 1-6 1.2-9.3-3.8 5-8.4 9-13.7 11.9-5.4 3-10.8 4.6-16.4 4.9-8.8.4-16.3-2.3-22.3-8.2-6.1-5.9-9.4-14.4-9.9-25.7-.3-6.5.8-12.8 3.5-19 2.6-6.1 6.3-11.4 11.1-15.7 4.9-4.5 10.4-7.4 16.5-8.9 6.1-1.4 12.7-.8 19.8 1.6 3.8 1.5 6.8 3.2 9.2 5.1l-.3-4.4c-.1-1.2.2-2.2 1-3.1.8-.8 1.8-1.3 2.9-1.4 1.1-.1 2.1.3 3 1 .6.9 1 1.8 1.1 2.9zm-7.3 23.4c-1.3-4.8-2.7-8.1-4.2-10-1.7-2.2-4.6-4.1-8.7-5.7-5.4-1.9-10.4-2.3-15-1.3-4.6 1.1-8.8 3.3-12.8 6.8-3.8 3.5-6.8 7.8-8.8 12.8-2.1 5-3.1 10.2-2.8 15.4.4 9.1 2.8 15.8 7.3 20 4.4 4.2 9.8 6.1 16.1 5.9 6.3-.4 12.3-2.9 18.1-7.4 5.7-4.5 9.7-10.6 11.8-18.1.1-.4.3-.8.6-1.2-.2-3-.6-7.8-1.2-14.4-.1-.7-.1-1.4-.1-2.3-.3-.1-.3-.3-.3-.5z"/></svg>